<svg xmlns="http://www.w3.org/2000/svg" viewBox="0 0 64 64" role="img" aria-label="Colodoro rainbow tomato">
  <defs>
    <linearGradient id="rainbow" x1="0%" y1="0%" x2="100%" y2="100%">
      <stop offset="0%" stop-color="#ff595e"/>
      <stop offset="20%" stop-color="#ff924c"/>
      <stop offset="40%" stop-color="#ffca3a"/>
      <stop offset="60%" stop-color="#8ac926"/>
      <stop offset="80%" stop-color="#1982c4"/>
      <stop offset="100%" stop-color="#6a4c93"/>
    </linearGradient>
    <linearGradient id="stem" x1="0%" y1="0%" x2="0%" y2="100%">
      <stop offset="0%" stop-color="#7cb342"/>
      <stop offset="100%" stop-color="#558b2f"/>
    </linearGradient>
    <radialGradient id="shine" cx="35%" cy="30%" r="45%">
      <stop offset="0%" stop-color="#ffffff" stop-opacity="0.45"/>
      <stop offset="100%" stop-color="#ffffff" stop-opacity="0"/>
    </radialGradient>
  </defs>

  <!-- Stem -->
  <path d="M32 8c-2 0-4 1-5 3-1 2-1 4 0 6 1-3 3-5 6-5 3 0 5 2 6 5 1-2 1-4 0-6-1-2-3-3-5-3z" fill="url(#stem)"/>
  <path d="M32 8c-3 2-6 2-9 0 2 3 5 4 9 4s7-1 9-4c-3 2-6 2-9 0z" fill="#689f38"/>

  <!-- Tomato body -->
  <path d="M32 18c-14 0-22 11-22 22 0 12 10 20 22 20s22-8 22-20c0-11-8-22-22-22z" fill="url(#rainbow)"/>
  <path d="M32 18c-3-2-7-2-10 0-6 3-10 9-10 16 0 2 0 4 1 6 2-8 6-14 12-17 3-2 7-2 10 0 6 3 10 9 12 17 1-2 1-4 1-6 0-7-4-13-10-16-3-2-7-2-10 0z" fill="#000000" fill-opacity="0.08"/>

  <!-- Top indent -->
  <ellipse cx="32" cy="20" rx="10" ry="4" fill="#6a4c93" fill-opacity="0.35"/>

  <!-- Highlight -->
  <ellipse cx="24" cy="34" rx="9" ry="11" fill="url(#shine)"/>
</svg>
